<?xml version="1.0" encoding="UTF-8"?>
<svg version="1.1" xmlns="http://www.w3.org/2000/svg" width="366" height="349">
<path d="M0 0 C120.78 0 241.56 0 366 0 C366 115.17 366 230.34 366 349 C245.22 349 124.44 349 0 349 C0 233.83 0 118.66 0 0 Z " fill="#11562C" transform="translate(0,0)"/>
<path d="M0 0 C48.51 0 97.02 0 147 0 C147 0.33 147 0.66 147 1 C145.91203125 1.24234375 144.8240625 1.4846875 143.703125 1.734375 C130.87968587 4.63787806 118.87179852 8.25506801 107 14 C105.87335938 14.53753906 104.74671875 15.07507813 103.5859375 15.62890625 C88.33961183 23.05277071 74.69259833 32.40230714 62.25390625 43.95703125 C60 46 60 46 57.484375 47.94140625 C54.83501454 50.13670965 52.83094804 52.43687321 50.6875 55.125 C49.90632813 56.10339844 49.12515625 57.08179688 48.3203125 58.08984375 C47.17175781 59.53037109 47.17175781 59.53037109 46 61 C45.33742187 61.78503906 44.67484375 62.57007813 43.9921875 63.37890625 C19.71834447 92.41907068 6.30753638 130.48172199 6.66381836 168.14038086 C6.68763394 170.82761266 6.68432033 173.51385941 6.67773438 176.20117188 C6.69208707 185.33432057 7.07431627 194.03671068 9 203 C9.16089111 203.86439697 9.32178223 204.72879395 9.48754883 205.61938477 C16.34097871 242.23194549 35.53779203 275.8487019 63 301 C63.66 301.33 64.32 301.66 65 302 C65 302.66 65 303.32 65 304 C65.78310547 304.3403125 65.78310547 304.3403125 66.58203125 304.6875 C69.18268302 306.09916235 71.46792517 307.78828021 73.81884766 309.57861328 C94.59960381 325.38545446 117.60287079 335.96145135 143 342 C143.72171387 342.17789062 144.44342773 342.35578125 145.18701172 342.5390625 C170.06678012 348.39722801 198.54356702 346.5897601 223 340 C224.2478125 339.67773438 225.495625 339.35546875 226.78125 339.0234375 C229.91130182 338.1324574 232.94207932 337.11300715 236 336 C236.9892749 335.64881104 236.9892749 335.64881104 237.99853516 335.29052734 C259.39519179 327.63686793 277.69267663 316.77454434 295 302 C295.804375 301.319375 296.60875 300.63875 297.4375 299.9375 C302.42408514 295.62477772 306.83171004 291.10299741 311 286 C311.83402344 284.99195313 312.66804688 283.98390625 313.52734375 282.9453125 C329.09755709 263.8371699 340.02705275 242.6295527 347 219 C347.30550781 217.98035156 347.61101562 216.96070313 347.92578125 215.91015625 C348.7344237 212.95342771 349.39393792 210.00505784 350 207 C350.13535156 206.34499512 350.27070313 205.68999023 350.41015625 205.01513672 C359.07039329 161.56766371 350.52150779 114.50299 326.07421875 77.47265625 C310.54920532 54.72152836 291.70614546 36.08739987 268 22 C267.42733398 21.6587207 266.85466797 21.31744141 266.26464844 20.96582031 C249.37206129 11.06522941 231.02166577 5.24973843 212 1 C212 0.67 212 0.34 212 0 C262.82 0 313.64 0 366 0 C366 115.17 366 230.34 366 349 C245.22 349 124.44 349 0 349 C0 233.83 0 118.66 0 0 Z " fill="#1A1A1A" transform="translate(0,0)"/>
<path d="M0 0 C10.27805184 8.66823649 16.43773029 19.48548807 19.15625 32.625 C19.23875 33.73875 19.32125 34.8525 19.40625 36 C19.4578125 36.66128906 19.509375 37.32257813 19.5625 38.00390625 C20.36056518 56.59217432 9.69598458 70.5046783 -2.17089844 83.48876953 C-3.61599127 85.02362277 -5.09515389 86.51748801 -6.59375 88 C-10.60114697 86.39425598 -13.27773496 83.57769236 -16.24853516 80.55639648 C-16.8018602 80.0017572 -17.35518524 79.44711792 -17.92527771 78.87567139 C-19.74910043 77.04536905 -21.56584526 75.20819955 -23.3828125 73.37109375 C-24.64974865 72.09788633 -25.9172019 70.82519327 -27.18515015 69.55299377 C-30.51932265 66.20552572 -33.84788037 62.85253448 -37.17486572 59.4979248 C-42.5061227 54.12352361 -47.84413688 48.75585424 -53.18537521 43.39137459 C-55.05237911 41.51412555 -56.91594582 39.63351288 -58.77920532 37.75254822 C-59.91860679 36.60632108 -61.05811702 35.46020206 -62.19775391 34.31420898 C-62.97702995 33.52482689 -62.97702995 33.52482689 -63.77204895 32.71949768 C-66.425187 30.01968619 -66.425187 30.01968619 -69.59375 28 C-69.84253906 28.54527344 -70.09132813 29.09054688 -70.34765625 29.65234375 C-71.84742382 32.47792466 -73.67069331 34.96049242 -75.53125 37.5625 C-80.19381271 44.50980306 -83.4746853 52.29609762 -83.06393433 60.86286926 C-80.90373442 70.68163472 -74.357457 78.12592406 -67.3984375 84.95703125 C-66.52857208 85.83026535 -65.65870667 86.70349945 -64.76248169 87.60319519 C-62.93926165 89.42611857 -61.10865651 91.24168351 -59.27099609 93.05004883 C-56.44976186 95.83121849 -53.65948371 98.64101914 -50.87109375 101.45507812 C-49.09029622 103.22832626 -47.30780419 104.99987469 -45.5234375 106.76953125 C-44.6879538 107.61199905 -43.85247009 108.45446686 -42.9916687 109.32246399 C-42.2105069 110.0846373 -41.42934509 110.84681061 -40.62451172 111.63208008 C-39.94089569 112.30870193 -39.25727966 112.98532379 -38.552948 113.68244934 C-36.69145183 115.23881022 -36.69145183 115.23881022 -34.48245239 114.77690125 C-32.46089157 113.94534984 -30.52058752 113.03223439 -28.59375 112 C-26.94375 113.32 -25.29375 114.64 -23.59375 116 C-23.07724884 115.47461639 -22.56074768 114.94923279 -22.02859497 114.40792847 C-17.12678225 109.42551441 -12.21506517 104.45312115 -7.29236031 99.49136162 C-4.7627026 96.94094958 -2.23685091 94.38700615 0.28027344 91.82421875 C2.71575665 89.34483943 5.16126987 86.87575199 7.61365128 84.41308975 C8.98842259 83.0274785 10.35298548 81.63176218 11.71725464 80.23580933 C22.59525254 69.35399051 34.72643973 62.71163624 50.40625 62.5 C69.73676826 62.73782171 84.12956584 72.98750376 97.59375 85.8125 C111.29694004 99.95002252 116.92460986 114.52150736 116.9765625 133.84301758 C116.64251416 147.97498174 110.30953792 159.95522698 100.35595703 169.78027344 C89.74918262 179.58854944 75.48394786 184.64738053 61.1171875 184.22265625 C57.62803359 183.93608309 54.69166266 183.21681951 51.40625 182 C50.64957031 181.74347656 49.89289063 181.48695313 49.11328125 181.22265625 C36.33040851 176.60496734 24.53627626 166.84003501 16.40625 156 C35.87625 136.53 55.34625 117.06 75.40625 97 C74.05882114 92.95771341 71.41609892 91.67805091 67.96875 89.5 C67.33638428 89.0985376 66.70401855 88.6970752 66.05249023 88.28344727 C58.32727089 83.53089624 50.46062539 80.55261429 41.29296875 82.43359375 C31.13237508 85.25890563 23.85717722 93.25339327 16.65234375 100.55859375 C15.86602066 101.34774673 15.07969757 102.13689972 14.26954651 102.94996643 C11.78949324 105.44110453 9.31653304 107.93914726 6.84375 110.4375 C5.15085711 112.14043781 3.45750191 113.84291619 1.76367188 115.54492188 C-2.36082379 119.69132249 -6.47953846 123.84339621 -10.59375 128 C-10.28695312 128.61359375 -9.98015625 129.2271875 -9.6640625 129.859375 C-8.640625 131.90625 -7.6171875 133.953125 -6.59375 136 C-7.58375 136.66 -8.57375 137.32 -9.59375 138 C-9.74585938 137.19304687 -9.89796875 136.38609375 -10.0546875 135.5546875 C-12.32180047 130.31846211 -16.13946868 127.03210386 -20.21875 123.125 C-21.02054688 122.34125 -21.82234375 121.5575 -22.6484375 120.75 C-24.62145634 118.8239578 -26.60320547 116.90789656 -28.59375 115 C-31.95710594 116.45745424 -34.13909005 118.31117854 -36.703125 120.9140625 C-37.45722656 121.67460937 -38.21132812 122.43515625 -38.98828125 123.21875 C-39.76558594 124.0128125 -40.54289063 124.806875 -41.34375 125.625 C-42.13652344 126.42679688 -42.92929688 127.22859375 -43.74609375 128.0546875 C-45.69989493 130.03202846 -47.64887103 132.01388909 -49.59375 134 C-47.37193923 139.01037451 -43.60599308 142.35594527 -39.78125 146.1875 C-39.06904297 146.92419922 -38.35683594 147.66089844 -37.62304688 148.41992188 C-36.92630859 149.12052734 -36.22957031 149.82113281 -35.51171875 150.54296875 C-34.88031982 151.18258545 -34.2489209 151.82220215 -33.59838867 152.48120117 C-31.26648705 154.24794822 -29.46852199 154.638047 -26.59375 155 C-27.25375 155.99 -27.91375 156.98 -28.59375 158 C-31.26041667 156.66666667 -33.92708333 155.33333333 -36.59375 154 C-37.35304054 154.76928329 -37.35304054 154.76928329 -38.12767029 155.55410767 C-42.92935434 160.41622262 -47.73848075 165.27086651 -52.55580044 170.11748695 C-55.03142293 172.6086803 -57.50421246 175.10254881 -59.97045898 177.60302734 C-62.81426044 180.48604682 -65.67046784 183.3564979 -68.52734375 186.2265625 C-69.39959091 187.11429352 -70.27183807 188.00202454 -71.17051697 188.91665649 C-77.86893091 195.61687694 -84.63190919 201.51692799 -93.84375 204.3125 C-95.30554688 204.77076172 -95.30554688 204.77076172 -96.796875 205.23828125 C-111.36592934 209.2061103 -124.90668511 206.54271916 -138.12890625 199.53515625 C-156.16438488 188.30228287 -169.95146142 171.12941193 -175.86328125 150.69140625 C-178.64753083 136.621268 -176.77845634 123.76521146 -169.46875 111.375 C-160.66657688 98.39647665 -148.16746967 89.0876592 -132.59375 86 C-116.91387305 84.92289134 -103.27024892 88.15973927 -90.85058594 98.44335938 C-85.91238798 102.7666322 -81.20997482 107.33585589 -76.59375 112 C-78.20234504 116.01571255 -81.03015365 118.70479614 -84.05322266 121.68652344 C-84.60946823 122.24306107 -85.16571381 122.79959869 -85.73881531 123.3730011 C-87.57377905 125.20657442 -89.41571931 127.03296672 -91.2578125 128.859375 C-92.53334389 130.13117525 -93.80843367 131.40341853 -95.08309937 132.67608643 C-98.43570395 136.02106258 -101.79427173 139.35998851 -105.15411377 142.69769287 C-108.58292456 146.10602831 -112.00606573 149.52004745 -115.4296875 152.93359375 C-122.14550272 159.62797297 -128.86763094 166.31597466 -135.59375 173 C-127.88488756 180.85219747 -118.44783117 186.94927908 -107.21875 187.4375 C-88.89320583 186.78030807 -76.44935534 168.98635255 -64.46875 156.9375 C-62.92471375 155.38843801 -61.38044474 153.839608 -59.8359375 152.29101562 C-56.08585432 148.53001357 -52.33865312 144.76615961 -48.59375 141 C-49.91375 139.35 -51.23375 137.7 -52.59375 136 C-51.38993552 133.50638429 -50.13946278 131.31856917 -48.59375 129 C-49.09185684 128.5107756 -49.58996368 128.02155121 -50.10316467 127.51750183 C-54.83514463 122.86624398 -59.55702154 118.2049824 -64.26827335 113.53272533 C-66.68972979 111.1319916 -69.11469499 108.73505761 -71.54858398 106.34692383 C-74.35759622 103.59038117 -77.1497405 100.81708128 -79.94140625 98.04296875 C-80.8021022 97.20291794 -81.66279816 96.36286713 -82.54957581 95.49736023 C-94.95659004 83.09491549 -101.87900965 69.61082923 -101.91064453 52.06225586 C-101.66639297 36.98650685 -93.95207026 22.75492261 -83.59375 12 C-82.93375 12 -82.27375 12 -81.59375 12 C-81.09875 10.515 -81.09875 10.515 -80.59375 9 C-79.93375 9 -79.27375 9 -78.59375 9 C-78.59375 8.34 -78.59375 7.68 -78.59375 7 C-55.8334143 -13.46762789 -25.3023537 -19.51024864 0 0 Z " fill="#FAFBFB" transform="translate(209.59375,37)"/>
<path d="M0 0 C0.495 1.485 0.495 1.485 1 3 C2.31664795 3.6990425 3.65292657 4.36155235 5 5 C6.83857727 6.57788086 6.83857727 6.57788086 8.73950195 8.46484375 C9.45737381 9.17318359 10.17524567 9.88152344 10.91487122 10.61132812 C11.68159653 11.37896484 12.44832184 12.14660156 13.23828125 12.9375 C14.03727341 13.73220703 14.83626556 14.52691406 15.6594696 15.34570312 C17.35064504 17.03113521 19.03920508 18.71919506 20.7253418 20.40966797 C23.28373806 22.97120277 25.85509115 25.51919074 28.42773438 28.06640625 C30.07372847 29.71012497 31.71893566 31.35463215 33.36328125 33 C34.50426018 34.12716431 34.50426018 34.12716431 35.66828918 35.27709961 C45.68076742 45.37532402 54.28023639 57.3648066 55 72 C55.05027344 72.6703125 55.10054688 73.340625 55.15234375 74.03125 C55.91760622 90.92824527 47.87149971 105.56997939 36.97338867 117.79833984 C25.45875273 130.27266596 10.35184698 141.07510389 -7.09912109 142.12646484 C-23.80095378 142.6852093 -35.57053906 140.25490791 -48.6875 129.25 C-58.97105588 119.61821879 -66.02154715 106.56913015 -66.56054688 92.32324219 C-66.57619346 74.71301469 -58.87998031 62.52950305 -47 50 C-45.1216693 47.81158434 -43.2598506 45.61107424 -41.41015625 43.3984375 C-40 42 -40 42 -38 42 C-36.68968201 43.33032227 -36.68968201 43.33032227 -35.11499023 45.25390625 C-30.11456927 51.12885547 -24.62406036 56.50025535 -19.16015625 61.9375 C-18.02650857 63.06927864 -16.89308441 64.2012812 -15.75987244 65.33349609 C-12.80136149 68.28822011 -9.83985819 71.23992653 -6.87768555 74.190979 C-3.84565275 77.21271471 -0.81650933 80.23734394 2.21289062 83.26171875 C8.13912967 89.17728805 14.06853842 95.08966729 20 101 C26.9457309 97.78122476 30.60090868 90.57203837 33.4375 83.6875 C35.58448269 77.04966706 37.09463351 69.3237662 33.94229126 62.81666565 C30.0142211 56.04655925 25.3200048 50.79172332 19.734375 45.34375 C18.85976624 44.47480103 17.98515747 43.60585205 17.08404541 42.71057129 C14.31536253 39.96409032 11.53304539 37.23191838 8.75 34.5 C6.86626283 32.63635084 4.98344114 30.77177585 3.1015625 28.90625 C-1.01767255 24.82617731 -5.14551232 20.75505154 -9.28131104 16.69177246 C-10.52610502 15.46647328 -11.76491495 14.23508505 -13 13 C-8.71 8.71 -4.42 4.42 0 0 Z " fill="#FAFBFB" transform="translate(197,176)"/>
<path d="M0 0 C3.48972003 1.49530324 5.73465395 3.49191662 8.40136719 6.17431641 C9.2619574 7.03505768 10.12254761 7.89579895 11.00921631 8.78262329 C11.92914368 9.71287323 12.84907104 10.64312317 13.796875 11.6015625 C14.75479097 12.56321086 15.71315114 13.52441694 16.67193604 14.48519897 C19.18835125 17.00923282 21.69870107 19.53921591 24.20782471 22.07049561 C26.77162441 24.6547919 29.34112918 27.23340199 31.91015625 29.8125 C36.94569457 34.86945697 41.9748456 39.93272256 47 45 C43.77065978 48.31763986 41.07650787 50.77130822 36.875 52.75 C36.02679688 53.15734375 35.17859375 53.5646875 34.3046875 53.984375 C27.20849273 57.11151168 17.17586189 57.35831465 9.6875 55.0625 C0.8479999 50.94125159 -6.06508769 42.77006286 -10 34 C-12.60679695 23.38090077 -9.49534077 15.21776308 -4.28125 6.04296875 C-2.9593971 3.93525817 -1.52104649 1.96763281 0 0 Z " fill="#13582F" transform="translate(160,244)"/>
<path d="M0 0 C7.21627001 5.23230974 13.14912003 11.44736009 16 20 C17.17663337 33.75310811 13.1632713 42.22264744 5 53 C-0.71700538 48.24863726 -5.97689423 43.15385413 -11.21484375 37.8828125 C-12.07058487 37.02565643 -12.92632599 36.16850037 -13.80799866 35.28536987 C-16.52020465 32.56760046 -19.2288983 29.84636109 -21.9375 27.125 C-23.78427369 25.27320658 -25.63127653 23.42164166 -27.47851562 21.5703125 C-31.98833201 17.04951565 -36.49527569 12.52587054 -41 8 C-39.324222 2.97266601 -34.52967483 1.35491618 -30 -1 C-19.86675814 -5.6215799 -9.86281367 -5.24049786 0 0 Z " fill="#13582F" transform="translate(194,47)"/>
<path d="M0 0 C3.92679857 2.20381552 7.65182686 4.64772327 11.296875 7.2890625 C10.29789787 10.28599388 9.64557247 11.31615663 7.296875 13.2890625 C6.636875 13.2890625 5.976875 13.2890625 5.296875 13.2890625 C4.801875 14.7740625 4.801875 14.7740625 4.296875 16.2890625 C2.859375 17.9765625 2.859375 17.9765625 1.296875 19.2890625 C0.636875 19.2890625 -0.023125 19.2890625 -0.703125 19.2890625 C-1.198125 20.7740625 -1.198125 20.7740625 -1.703125 22.2890625 C-3.140625 23.9765625 -3.140625 23.9765625 -4.703125 25.2890625 C-5.363125 25.2890625 -6.023125 25.2890625 -6.703125 25.2890625 C-7.198125 26.7740625 -7.198125 26.7740625 -7.703125 28.2890625 C-9.140625 29.9765625 -9.140625 29.9765625 -10.703125 31.2890625 C-11.363125 31.2890625 -12.023125 31.2890625 -12.703125 31.2890625 C-13.033125 32.2790625 -13.363125 33.2690625 -13.703125 34.2890625 C-15.140625 35.9765625 -15.140625 35.9765625 -16.703125 37.2890625 C-17.363125 37.2890625 -18.023125 37.2890625 -18.703125 37.2890625 C-19.033125 38.2790625 -19.363125 39.2690625 -19.703125 40.2890625 C-21.140625 41.9765625 -21.140625 41.9765625 -22.703125 43.2890625 C-23.363125 43.2890625 -24.023125 43.2890625 -24.703125 43.2890625 C-25.033125 44.2790625 -25.363125 45.2690625 -25.703125 46.2890625 C-27.140625 47.9765625 -27.140625 47.9765625 -28.703125 49.2890625 C-29.363125 49.2890625 -30.023125 49.2890625 -30.703125 49.2890625 C-31.033125 50.2790625 -31.363125 51.2690625 -31.703125 52.2890625 C-33.765625 52.9765625 -33.765625 52.9765625 -35.703125 53.2890625 C-42.84202089 45.19831382 -46.532022 35.75350949 -46.09375 24.890625 C-45.44627795 20.57846114 -43.82783632 17.06302527 -41.703125 13.2890625 C-41.166875 12.2784375 -40.630625 11.2678125 -40.078125 10.2265625 C-29.88520074 -2.3804754 -15.0896445 -7.03845834 0 0 Z " fill="#14582F" transform="translate(96.703125,144.7109375)"/>
<path d="M0 0 C3.64493838 2.79887131 5.80330169 4.87204228 7.75 9.0625 C8.15734375 9.91972656 8.5646875 10.77695313 8.984375 11.66015625 C12.27700362 19.24586604 12.32669658 28.53885615 9.9765625 36.44140625 C5.81089356 45.45167913 -1.05001595 52.73950965 -10.4296875 56.3671875 C-19.97523419 58.7173069 -27.93085264 57.44700674 -36.421875 52.66796875 C-39.54821688 50.64532029 -42.29392127 48.55574103 -45 46 C-40.24863726 40.28299462 -35.15385413 35.02310577 -29.8828125 29.78515625 C-29.02565643 28.92941513 -28.16850037 28.07367401 -27.28536987 27.19200134 C-24.56760046 24.47979535 -21.84636109 21.7711017 -19.125 19.0625 C-17.27320658 17.21572631 -15.42164166 15.36872347 -13.5703125 13.52148438 C-9.04951565 9.01166799 -4.52587054 4.50472431 0 0 Z " fill="#12572E" transform="translate(297,145)"/>
<path d="M0 0 C5.20225729 2.2936563 8.75380548 6.30682298 12.75 10.25 C13.54277344 11.00152344 14.33554688 11.75304687 15.15234375 12.52734375 C15.90128906 13.26597656 16.65023437 14.00460938 17.421875 14.765625 C18.10862305 15.43368164 18.79537109 16.10173828 19.50292969 16.79003906 C21.47150434 19.69603021 21.43616138 21.5616735 21 25 C18.828125 26.5625 18.828125 26.5625 16 28 C14.20317724 29.61607727 12.45373278 31.28606523 10.75 33 C9.87859375 33.86625 9.0071875 34.7325 8.109375 35.625 C5.81742617 37.89181515 5.81742617 37.89181515 5 41 C1.37782109 41.34802225 -0.41943451 41.41751156 -3.42529297 39.25585938 C-4.57215576 38.06186523 -4.57215576 38.06186523 -5.7421875 36.84375 C-6.58007812 35.98652344 -7.41796875 35.12929687 -8.28125 34.24609375 C-9.1371875 33.33988281 -9.993125 32.43367188 -10.875 31.5 C-11.75414062 30.59378906 -12.63328125 29.68757813 -13.5390625 28.75390625 C-15.70680245 26.51547913 -17.85933075 24.26427911 -20 22 C-18.51346494 18.53370165 -16.54277649 16.30977964 -13.8671875 13.671875 C-12.65869141 12.47304687 -12.65869141 12.47304687 -11.42578125 11.25 C-10.58402344 10.425 -9.74226562 9.6 -8.875 8.75 C-8.02550781 7.90953125 -7.17601562 7.0690625 -6.30078125 6.203125 C-4.20495077 4.13084317 -2.10459287 2.06337607 0 0 Z " fill="#E7A228" transform="translate(179,151)"/>
<path d="M0 0 C0.66 0.33 1.32 0.66 2 1 C-3.61 6.61 -9.22 12.22 -15 18 C-15 14.06830895 -13.60580385 12.83572772 -11 10 C-10.34 10 -9.68 10 -9 10 C-8.67 9.01 -8.34 8.02 -8 7 C-7.34 7 -6.68 7 -6 7 C-6 6.34 -6 5.68 -6 5 C-4.04072937 3.2856382 -2.04119788 1.61594832 0 0 Z " fill="#E0E8E3" transform="translate(137,39)"/>
<path d="M0 0 C2.97 0.99 5.94 1.98 9 3 C8.01 4.485 8.01 4.485 7 6 C3.63279613 4.60667426 2.0140476 3.0210714 0 0 Z " fill="#CDD1BA" transform="translate(174,189)"/>
<path d="M0 0 C1.98 1.65 3.96 3.3 6 5 C5.34 6.32 4.68 7.64 4 9 C3.67 9 3.34 9 3 9 C2 6 1 3 0 0 Z " fill="#CFD2BA" transform="translate(197,166)"/>
</svg>
